<?xml version="1.0" standalone="no"?>
<!DOCTYPE svg PUBLIC "-//W3C//DTD SVG 20010904//EN"
 "http://www.w3.org/TR/2001/REC-SVG-20010904/DTD/svg10.dtd">
<svg version="1.0" xmlns="http://www.w3.org/2000/svg"
 width="170.000000pt" height="207.000000pt" viewBox="0 0 170.000000 207.000000"
 preserveAspectRatio="xMidYMid meet">

<g transform="translate(0.000000,207.000000) scale(0.100000,-0.100000)"
fill="#000000" stroke="none">
<path d="M0 1356 c0 -713 0 -714 20 -709 11 3 26 13 33 23 7 9 22 22 34 28 12
7 49 46 84 87 34 41 67 75 75 75 7 0 14 6 17 13 3 8 11 5 24 -10 11 -13 29
-23 40 -23 25 0 43 -19 43 -44 0 -38 34 -103 62 -119 19 -11 28 -24 28 -42 0
-14 4 -24 9 -21 11 7 33 -18 24 -27 -3 -4 2 -9 11 -13 9 -3 13 -10 10 -16 -3
-5 2 -16 12 -24 18 -14 17 -15 -13 -10 -34 6 -41 -2 -21 -22 9 -9 9 -12 0 -12
-7 0 -12 -4 -12 -10 0 -5 7 -10 16 -10 8 0 12 -5 9 -10 -4 -6 -2 -17 5 -25 9
-10 7 -16 -6 -23 -9 -5 -22 -25 -28 -43 -8 -26 -19 -36 -44 -44 -17 -5 -32
-14 -32 -20 0 -16 -29 44 -33 68 -4 28 -39 119 -44 114 -4 -5 66 -276 77 -297
5 -8 20 -26 34 -39 22 -21 28 -22 42 -10 16 13 17 11 10 -14 -5 -20 -2 -29 9
-33 8 -4 15 -12 15 -18 0 -19 55 -76 73 -76 10 0 17 5 17 10 0 6 -4 10 -9 10
-5 0 -12 12 -16 27 -5 21 -1 31 22 49 39 32 61 36 73 13 6 -10 17 -19 25 -19
8 0 15 -8 15 -17 0 -10 19 22 41 72 22 49 47 93 54 98 8 4 27 29 42 54 23 40
27 56 25 115 -3 73 6 85 29 39 16 -34 100 -106 144 -124 16 -6 91 -42 165 -78
141 -69 164 -87 252 -204 l33 -44 103 -1 102 0 0 1035 0 1035 -850 0 -850 0 0
-714z m649 563 c5 8 16 9 30 3 21 -7 19 -9 -21 -22 -23 -8 -52 -20 -63 -28
-16 -11 -16 -13 -2 -9 30 11 19 -10 -13 -23 -16 -7 -30 -19 -30 -27 0 -8 -15
-27 -32 -44 -18 -16 -27 -29 -21 -29 6 0 35 24 66 53 30 28 61 57 68 62 20 15
90 35 83 24 -3 -5 -1 -9 5 -9 5 0 12 4 15 9 3 5 18 11 33 14 25 4 26 3 9 -7
-11 -6 -32 -22 -47 -36 -60 -55 -89 -80 -94 -80 -3 0 -22 -11 -43 -24 -43 -29
-112 -54 -167 -61 l-38 -4 23 24 c15 16 30 23 41 20 10 -3 20 -1 24 4 4 7 -1
8 -11 4 -13 -5 -16 -3 -11 10 4 12 2 14 -11 10 -9 -3 -23 -11 -31 -17 -11 -8
-13 -8 -8 1 5 9 0 9 -23 0 -24 -9 -33 -9 -39 1 -6 10 -14 8 -34 -8 -36 -28
-34 -17 4 31 17 21 29 44 27 50 -4 11 -78 -96 -78 -112 0 -5 -7 -9 -15 -9 -22
0 -18 14 11 44 15 14 21 26 15 26 -37 0 67 92 107 95 10 0 23 5 31 9 10 7 11
4 1 -13 -11 -21 -11 -22 24 -7 20 8 36 13 36 10 0 -3 21 7 46 22 61 36 118 55
123 42 2 -7 6 -6 10 1z m121 -90 c-100 -79 -140 -114 -140 -121 0 -10 27 0 70
27 19 12 42 22 50 23 8 0 26 3 40 7 43 12 170 17 170 7 0 -5 18 -14 40 -21 22
-6 40 -16 40 -21 0 -6 6 -10 14 -10 15 0 66 -38 64 -48 -2 -12 20 -60 32 -67
6 -4 9 -13 6 -21 -3 -7 -1 -16 5 -20 5 -3 7 -14 4 -23 -3 -10 -1 -49 4 -87 12
-84 6 -118 -20 -111 -11 3 -22 1 -25 -4 -3 -5 -20 -16 -39 -23 -22 -10 -35
-22 -37 -38 -4 -25 23 -120 53 -184 10 -23 19 -48 19 -57 0 -8 7 -18 16 -21
24 -9 14 -52 -11 -49 -11 2 -61 5 -112 7 -51 2 -97 7 -104 11 -6 4 -9 20 -7
36 3 16 2 29 -2 29 -11 0 -190 -190 -190 -202 0 -7 38 25 84 71 81 81 84 82
98 62 16 -22 83 -71 98 -71 6 0 10 -9 10 -19 0 -11 9 -23 20 -26 44 -14 4 -25
-92 -25 -74 0 -106 4 -117 14 -14 13 -19 13 -39 -3 -13 -9 -27 -34 -32 -54 -9
-44 -6 -45 24 -11 20 25 26 26 75 19 40 -5 55 -12 58 -26 3 -11 16 -22 29 -25
29 -7 32 -24 4 -24 -11 0 -20 -4 -20 -9 0 -5 -2 -16 -5 -23 -7 -18 34 -38 76
-38 27 0 29 -2 18 -21 -7 -15 -14 -18 -21 -11 -13 13 -53 -5 -100 -47 -31 -26
-37 -27 -88 -20 -78 11 -119 24 -132 43 -4 6 -13 11 -20 12 -7 0 -20 2 -30 2
-9 1 -29 15 -44 31 -15 17 -39 33 -53 36 -31 8 -71 43 -71 62 0 7 -4 13 -8 13
-10 0 -35 50 -29 57 7 6 37 -8 37 -18 0 -5 5 -9 10 -9 6 0 10 14 10 32 0 25
-3 29 -12 20 -15 -15 -48 -16 -48 -2 0 5 -6 9 -12 7 -9 -1 -14 13 -16 41 -3
44 -10 49 -42 32 -29 -16 -66 7 -104 64 -46 71 -54 87 -82 172 -28 86 -23 130
21 182 14 17 25 42 25 57 0 18 13 39 42 66 23 21 47 38 53 37 5 0 18 2 28 7
23 10 33 -1 18 -19 -13 -16 1 -32 19 -21 5 3 7 0 4 -8 -3 -8 0 -18 7 -23 7 -4
15 -2 17 4 2 7 10 12 17 12 7 0 21 12 30 28 10 15 27 35 39 44 20 16 20 16 1
15 -11 -1 -20 3 -20 9 0 20 87 114 106 114 11 0 19 4 19 10 0 5 11 12 25 16
14 3 25 10 25 15 0 15 47 78 76 102 24 20 73 44 94 46 3 0 -6 -9 -20 -20z
m-320 -209 c0 -5 -5 -10 -11 -10 -5 0 -7 5 -4 10 3 6 8 10 11 10 2 0 4 -4 4
-10z m735 -380 c3 -5 2 -10 -4 -10 -5 0 -13 5 -16 10 -3 6 -2 10 4 10 5 0 13
-4 16 -10z m-693 -972 c-1 -9 4 -18 13 -21 22 -9 7 -37 -18 -34 -44 4 -60 40
-29 63 21 16 38 12 34 -8z"/>
<path d="M615 1805 l-30 -26 43 21 c43 21 52 30 30 30 -7 0 -26 -12 -43 -25z"/>
<path d="M481 1793 c-19 -9 -29 -19 -22 -21 6 -2 26 6 44 17 39 25 25 27 -22
4z"/>
<path d="M525 1510 c-3 -5 -1 -10 4 -10 6 0 11 5 11 10 0 6 -2 10 -4 10 -3 0
-8 -4 -11 -10z"/>
<path d="M456 1485 c-9 -9 -16 -21 -16 -28 0 -6 9 -1 21 12 24 26 20 40 -5 16z"/>
<path d="M541 1474 c0 -11 3 -14 6 -6 3 7 2 16 -1 19 -3 4 -6 -2 -5 -13z"/>
<path d="M472 1458 c-6 -8 -19 -32 -28 -53 -9 -21 -19 -34 -22 -28 -5 8 -13 7
-26 -2 -10 -8 -15 -19 -10 -26 5 -8 3 -10 -5 -4 -9 5 -12 1 -9 -13 2 -12 -5
-27 -14 -34 -16 -12 -16 -16 -3 -38 8 -14 17 -32 20 -40 21 -50 47 -67 43 -28
-2 18 3 24 21 26 13 2 31 11 39 19 13 13 13 16 1 24 -12 7 -12 9 0 9 10 0 11
3 2 14 -9 10 -9 16 -1 21 14 8 15 8 28 -30 8 -22 11 -25 11 -10 1 11 15 40 32
65 25 37 27 46 15 48 -18 4 -21 18 -6 27 6 3 10 10 10 16 0 5 -4 9 -10 9 -5 0
-10 -7 -10 -15 0 -8 -6 -15 -12 -15 -13 0 -38 -44 -38 -67 0 -17 -15 -17 -29
1 -9 10 -9 16 -1 21 6 4 9 21 6 38 -3 17 0 37 5 44 6 7 9 17 7 24 -3 8 -8 7
-16 -3z m-62 -135 c0 -19 -3 -24 -10 -17 -6 6 -8 18 -4 27 9 24 14 21 14 -10z"/>
<path d="M585 1441 c-3 -5 -1 -12 5 -16 5 -3 10 1 10 9 0 18 -6 21 -15 7z"/>
<path d="M800 1375 c0 -8 -4 -15 -8 -15 -5 0 -22 -11 -37 -24 -16 -14 -32 -23
-36 -20 -16 10 -34 -8 -36 -36 -2 -33 8 -32 66 7 35 24 53 27 84 15 13 -6 6
-11 -31 -24 -26 -10 -58 -27 -71 -40 -14 -13 -36 -31 -50 -41 l-26 -18 35 7
c19 3 42 11 51 17 23 15 80 -9 72 -30 -5 -12 -1 -14 15 -8 13 4 22 2 22 -4 0
-10 -12 -13 -77 -16 -34 -2 -37 -12 -6 -22 55 -19 132 25 138 79 1 13 3 26 4
30 0 4 14 5 29 2 27 -5 29 -3 39 40 6 25 6 46 1 46 -4 0 -13 10 -19 23 -13 28
-60 47 -117 47 -31 0 -42 -4 -42 -15z"/>
<path d="M260 1340 c0 -10 32 -30 49 -30 6 0 11 5 11 10 0 6 -7 10 -15 10 -8
0 -15 5 -15 10 0 6 -7 10 -15 10 -8 0 -15 -4 -15 -10z"/>
<path d="M162 1308 c-7 -7 -12 -21 -12 -32 0 -16 3 -17 12 -8 19 19 68 14 87
-9 13 -16 23 -20 41 -14 24 8 24 8 -13 41 -39 36 -91 46 -115 22z"/>
<path d="M495 1220 c-3 -5 -1 -10 4 -10 6 0 11 5 11 10 0 6 -2 10 -4 10 -3 0
-8 -4 -11 -10z"/>
<path d="M278 1197 c-16 -13 -28 -28 -28 -35 0 -8 9 -10 28 -6 36 9 54 27 46
47 -8 22 -13 21 -46 -6z"/>
<path d="M306 1094 c-4 -9 -4 -19 -1 -22 2 -3 7 3 11 12 4 9 4 19 1 22 -2 3
-7 -3 -11 -12z"/>
<path d="M720 714 c0 -16 23 -44 35 -44 20 0 19 13 -3 33 -19 17 -32 22 -32
11z"/>
<path d="M242 838 c-14 -14 -16 -94 -2 -103 6 -4 10 8 10 29 0 19 4 46 10 60
10 28 2 34 -18 14z"/>
<path d="M285 576 c24 -64 35 -88 35 -74 0 13 -44 124 -52 133 -5 6 2 -21 17
-59z"/>
<path d="M106 231 c-3 -5 10 -12 29 -15 20 -4 51 -21 70 -38 19 -16 35 -27 35
-23 0 3 13 -3 29 -14 43 -31 75 -32 79 -2 3 17 0 21 -10 16 -7 -3 -4 1 7 10
46 37 -31 73 -162 74 -39 1 -74 -3 -77 -8z"/>
<path d="M682 28 c-16 -16 -15 -28 3 -28 8 0 15 2 15 4 0 2 3 11 6 20 7 19 -7
21 -24 4z"/>
<path d="M993 33 c-27 -10 -11 -18 40 -19 51 -1 52 -1 22 12 -32 14 -43 15
-62 7z"/>
</g>
</svg>
